<svg width="21" height="20" viewBox="0 0 21 20" fill="none" xmlns="http://www.w3.org/2000/svg">
<path fill-rule="evenodd" clip-rule="evenodd" d="M10.5 20C4.97715 20 0.5 15.5228 0.5 10C0.5 4.47715 4.97715 0 10.5 0C16.0228 0 20.5 4.47715 20.5 10C20.5 15.5228 16.0228 20 10.5 20ZM10.5 19C15.4706 19 19.5 14.9706 19.5 10C19.5 5.02944 15.4706 1 10.5 1C5.52944 1 1.5 5.02944 1.5 10C1.5 14.9706 5.52944 19 10.5 19ZM10.4882 17C6.92419 17 3.54175 13.5818 3.54175 11.1115C3.54175 9.69373 6.62217 11.4 10.4882 11.4C14.3542 11.4 17.4686 9.69604 17.4583 11.1115C17.4408 13.5054 14.0521 17 10.4882 17ZM10.4882 13.85C13.8019 13.85 16.0942 12.569 16.0942 11.6451C16.0942 10.7213 13.8019 12.196 10.4882 12.196C7.17445 12.196 4.92019 10.8983 4.92019 11.6451C4.92019 12.392 7.17445 13.85 10.4882 13.85ZM7.4875 8.22498C6.83166 8.22498 6.3 7.69331 6.3 7.03748C6.3 6.38164 6.83166 5.84998 7.4875 5.84998C8.14334 5.84998 8.675 6.38164 8.675 7.03748C8.675 7.69331 8.14334 8.22498 7.4875 8.22498ZM13.4875 8.22498C12.8317 8.22498 12.3 7.69331 12.3 7.03748C12.3 6.38164 12.8317 5.84998 13.4875 5.84998C14.1433 5.84998 14.675 6.38164 14.675 7.03748C14.675 7.69331 14.1433 8.22498 13.4875 8.22498Z" fill="black"/>
</svg>
