<svg width="23" height="18" viewBox="0 0 23 18" fill="none" xmlns="http://www.w3.org/2000/svg">
<path d="M10.7144 6.52515C10.4215 6.23224 10.4215 5.75739 10.7144 5.46448C11.0073 5.17157 11.4822 5.17157 11.775 5.46448L14.25 7.93939L16.7249 5.46448C17.0177 5.17157 17.4926 5.17157 17.7855 5.46448C18.0784 5.75732 18.0784 6.23224 17.7855 6.52515L15.3105 9L17.7855 11.4749C18.0784 11.7678 18.0784 12.2427 17.7855 12.5355C17.4926 12.8284 17.0177 12.8284 16.7249 12.5355L14.25 10.0607L11.775 12.5355C11.4822 12.8284 11.0073 12.8284 10.7145 12.5355C10.4215 12.2426 10.4215 11.7678 10.7145 11.4749L13.1893 9.00006L10.7144 6.52515Z" fill="black"/>
<path fill-rule="evenodd" clip-rule="evenodd" d="M7.62134 1.37866L0 9L7.62134 16.6213C8.18396 17.184 8.94702 17.5 9.74268 17.5H20C21.6569 17.5 23 16.1569 23 14.5V3.5C23 1.84314 21.6569 0.5 20 0.5H9.74268C8.94702 0.5 8.18396 0.816101 7.62134 1.37866ZM20 16.2H9.74268C9.29175 16.2 8.85938 16.0209 8.54053 15.7021L1.8385 9L8.54053 2.29791C8.85938 1.97913 9.29175 1.79999 9.74268 1.79999H20C20.9388 1.79999 21.7 2.5611 21.7 3.5V14.5C21.7 15.4389 20.9388 16.2 20 16.2Z" fill="black"/>
</svg>
