<svg width="13" height="19" viewBox="0 0 13 19" fill="none" xmlns="http://www.w3.org/2000/svg">
<path fill-rule="evenodd" clip-rule="evenodd" d="M6.49841 0C4.7301 0 3.29004 1.43567 3.29004 3.20667V10.6327C3.29004 12.4039 4.72644 13.8394 6.49841 13.8394C8.26672 13.8394 9.70667 12.4037 9.70667 10.6327V3.20667C9.70667 1.43542 8.27026 0 6.49841 0ZM4.66504 3.20239V10.637C4.66504 11.6382 5.48584 12.4638 6.49841 12.4638C7.51794 12.4638 8.33167 11.6459 8.33167 10.637V3.20239C8.33167 2.20111 7.51086 1.37561 6.49841 1.37561C5.47876 1.37561 4.66504 2.19348 4.66504 3.20239Z" fill="black"/>
<path d="M7.25 17.6244V15.7069C10.75 15.5068 12.25 12.6359 12.25 9.83057V8.53711C12.2506 8.52698 12.2505 8.51685 12.2502 8.50665L12.25 8.49121C12.25 8.11133 11.9397 7.80341 11.5601 7.80341C11.1803 7.80341 10.88 8.11133 10.88 8.49121V9.82983C10.88 12.6356 9.75 14.5564 6.55005 14.5564C3.75 14.5564 2.125 12.6356 2.125 9.82983V8.53711C2.125 8.15723 1.81714 7.8493 1.4375 7.8493C1.05786 7.8493 0.75 8.15723 0.75 8.53711V9.83057C0.75 12.6391 2.75 15.5068 5.84998 15.7069V17.6244H3.27319C2.89844 17.6244 2.58337 17.9324 2.58337 18.3122C2.58337 18.6947 2.89221 19 3.27319 19H9.75C10.1248 19 10.45 18.6921 10.45 18.3122C10.45 17.9297 10.131 17.6244 9.75 17.6244H7.25Z" fill="black"/>
</svg>
